<svg aria-hidden="true" style="position: absolute; width: 0; height: 0; overflow: hidden;" version="1.1" xmlns="http://www.w3.org/2000/svg" xmlns:xlink="http://www.w3.org/1999/xlink">
    <defs>
        <symbol id="icon-Logo-2" viewBox="0 0 32 32">
            <path fill="#fff" style="fill: var(--color1, #fff)" d="M0.132 13.819v1.13c0 0.344 0.419 0.528 0.676 0.287l1.224-1.13c0.268-0.247 0.093-0.683-0.274-0.683h-1.224c-0.221 0-0.402 0.178-0.402 0.396z"></path>
            <path fill="#fff" style="fill: var(--color1, #fff)" d="M5.923 13.423h-1.224c-0.361 0-0.542 0.436-0.274 0.683l1.224 1.13c0.256 0.235 0.676 0.057 0.676-0.287v-1.13c0-0.218-0.181-0.396-0.402-0.396z"></path>
            <path fill="#fff" style="fill: var(--color1, #fff)" d="M3.505 16.183l2.144 1.985c0.256 0.235 0.676 0.057 0.676-0.287v-1.142c0-0.109-0.047-0.212-0.128-0.287l-2.692-2.496c-0.157-0.143-0.396-0.143-0.554 0l-2.692 2.496c-0.082 0.075-0.128 0.178-0.128 0.287v1.142c0 0.344 0.419 0.528 0.676 0.287l2.144-1.985c0.157-0.143 0.396-0.143 0.554 0z"></path>
            <path fill="#fff" style="fill: var(--color1, #fff)" d="M8.786 17.568l-0.696-2.556h0.717l0.396 1.718h0.023l0.413-1.718h0.704l0.419 1.708h0.022l0.389-1.708h0.716l-0.694 2.556h-0.751l-0.439-1.608h-0.032l-0.439 1.608h-0.749z"></path>
            <path fill="#fff" style="fill: var(--color1, #fff)" d="M12.978 16.090v1.478h-0.709v-3.409h0.689v1.303h0.030c0.058-0.151 0.151-0.269 0.28-0.354 0.129-0.087 0.29-0.13 0.484-0.13 0.178 0 0.332 0.039 0.464 0.117 0.133 0.077 0.236 0.187 0.31 0.331 0.074 0.143 0.111 0.315 0.11 0.514v1.628h-0.709v-1.501c0.001-0.158-0.039-0.28-0.12-0.368-0.080-0.088-0.192-0.132-0.336-0.132-0.097 0-0.182 0.021-0.256 0.062-0.073 0.041-0.131 0.101-0.173 0.18-0.041 0.078-0.062 0.171-0.063 0.281z"></path>
            <path fill="#fff" style="fill: var(--color1, #fff)" d="M15.193 17.568v-2.556h0.709v2.556h-0.709zM15.55 14.682c-0.105 0-0.196-0.035-0.271-0.105-0.074-0.071-0.112-0.156-0.112-0.255 0-0.098 0.037-0.181 0.112-0.251 0.075-0.071 0.166-0.107 0.271-0.107s0.195 0.036 0.27 0.107c0.075 0.070 0.113 0.154 0.113 0.251 0 0.099-0.038 0.184-0.113 0.255-0.074 0.070-0.164 0.105-0.27 0.105z"></path>
            <path fill="#fff" style="fill: var(--color1, #fff)" d="M17.83 15.012v0.533h-1.54v-0.533h1.54zM16.64 14.399h0.709v2.383c0 0.065 0.010 0.116 0.030 0.153 0.020 0.035 0.048 0.060 0.083 0.075 0.037 0.014 0.079 0.022 0.127 0.022 0.033 0 0.067-0.003 0.1-0.008 0.033-0.007 0.059-0.012 0.077-0.015l0.112 0.528c-0.035 0.011-0.085 0.024-0.15 0.038-0.064 0.016-0.143 0.025-0.235 0.028-0.171 0.007-0.321-0.016-0.449-0.068-0.128-0.052-0.227-0.133-0.298-0.243s-0.106-0.249-0.105-0.416v-2.477z"></path>
            <path fill="#fff" style="fill: var(--color1, #fff)" d="M19.43 17.618c-0.263 0-0.489-0.053-0.679-0.16-0.189-0.108-0.334-0.26-0.436-0.456-0.102-0.198-0.153-0.431-0.153-0.701 0-0.263 0.051-0.494 0.153-0.692s0.246-0.353 0.431-0.464c0.186-0.111 0.405-0.166 0.656-0.166 0.169 0 0.326 0.027 0.471 0.082 0.146 0.053 0.274 0.134 0.383 0.241 0.11 0.108 0.195 0.243 0.256 0.406 0.061 0.162 0.092 0.352 0.092 0.569v0.195h-2.159v-0.439h1.491c0-0.102-0.022-0.193-0.067-0.271s-0.106-0.14-0.185-0.185c-0.078-0.046-0.168-0.068-0.271-0.068-0.108 0-0.203 0.025-0.286 0.075-0.082 0.049-0.146 0.115-0.193 0.198-0.047 0.082-0.070 0.174-0.072 0.275v0.418c0 0.127 0.023 0.236 0.070 0.328 0.048 0.092 0.115 0.163 0.201 0.213s0.189 0.075 0.308 0.075c0.079 0 0.151-0.011 0.216-0.033s0.122-0.055 0.168-0.1 0.082-0.099 0.107-0.163l0.656 0.043c-0.033 0.158-0.102 0.295-0.205 0.413-0.102 0.116-0.234 0.207-0.396 0.273-0.161 0.064-0.347 0.097-0.558 0.097z"></path>
            <path fill="#fff" style="fill: var(--color1, #fff)" d="M21.066 18.527v-3.515h0.699v0.429h0.032c0.031-0.069 0.076-0.139 0.135-0.21 0.060-0.072 0.138-0.132 0.233-0.18 0.097-0.049 0.216-0.073 0.36-0.073 0.186 0 0.358 0.049 0.516 0.146 0.158 0.097 0.284 0.242 0.378 0.438 0.094 0.194 0.141 0.438 0.141 0.731 0 0.285-0.046 0.526-0.138 0.722-0.091 0.195-0.215 0.343-0.373 0.444-0.156 0.1-0.332 0.15-0.526 0.15-0.138 0-0.255-0.023-0.351-0.068-0.095-0.046-0.174-0.103-0.235-0.171-0.061-0.070-0.108-0.14-0.14-0.211h-0.022v1.368h-0.709zM21.76 16.29c0 0.152 0.021 0.285 0.063 0.398s0.103 0.201 0.183 0.265c0.080 0.062 0.177 0.093 0.291 0.093 0.115 0 0.213-0.032 0.293-0.095 0.080-0.064 0.14-0.153 0.181-0.266 0.042-0.114 0.063-0.246 0.063-0.394 0-0.148-0.020-0.277-0.062-0.389s-0.102-0.2-0.181-0.263c-0.080-0.063-0.178-0.095-0.295-0.095-0.115 0-0.213 0.030-0.293 0.092-0.079 0.061-0.139 0.148-0.181 0.26s-0.063 0.244-0.063 0.396z"></path>
            <path fill="#fff" style="fill: var(--color1, #fff)" d="M24.761 17.616c-0.163 0-0.308-0.028-0.436-0.085-0.128-0.058-0.229-0.143-0.303-0.255-0.073-0.113-0.11-0.254-0.11-0.423 0-0.142 0.026-0.261 0.078-0.358s0.123-0.174 0.213-0.233c0.090-0.059 0.192-0.103 0.306-0.133 0.115-0.030 0.236-0.051 0.363-0.063 0.149-0.016 0.268-0.030 0.36-0.043 0.091-0.014 0.157-0.036 0.198-0.063s0.062-0.069 0.062-0.123v-0.010c0-0.105-0.033-0.187-0.1-0.245-0.065-0.058-0.159-0.087-0.28-0.087-0.128 0-0.229 0.028-0.305 0.085-0.075 0.055-0.125 0.125-0.15 0.21l-0.656-0.053c0.033-0.155 0.099-0.29 0.196-0.403 0.098-0.114 0.224-0.202 0.378-0.263 0.155-0.062 0.335-0.093 0.539-0.093 0.142 0 0.278 0.017 0.408 0.050 0.131 0.033 0.247 0.085 0.348 0.155 0.102 0.070 0.183 0.16 0.241 0.27 0.059 0.109 0.088 0.239 0.088 0.391v1.724h-0.672v-0.355h-0.020c-0.041 0.080-0.096 0.15-0.165 0.211-0.069 0.060-0.151 0.107-0.248 0.141-0.097 0.033-0.208 0.050-0.335 0.050zM24.964 17.127c0.104 0 0.196-0.021 0.276-0.062 0.080-0.042 0.143-0.099 0.188-0.17s0.068-0.151 0.068-0.241v-0.271c-0.022 0.014-0.053 0.028-0.092 0.040-0.038 0.011-0.080 0.022-0.128 0.032-0.048 0.009-0.095 0.017-0.143 0.025-0.048 0.007-0.091 0.013-0.13 0.018-0.083 0.012-0.156 0.032-0.218 0.058s-0.11 0.063-0.145 0.108c-0.034 0.044-0.052 0.1-0.052 0.166 0 0.097 0.035 0.17 0.105 0.221 0.071 0.050 0.161 0.075 0.27 0.075z"></path>
            <path fill="#fff" style="fill: var(--color1, #fff)" d="M27.906 17.618c-0.262 0-0.487-0.055-0.676-0.166-0.188-0.112-0.332-0.267-0.433-0.466-0.1-0.199-0.15-0.427-0.15-0.686 0-0.262 0.050-0.492 0.151-0.689 0.102-0.199 0.247-0.353 0.434-0.464 0.188-0.112 0.411-0.168 0.669-0.168 0.223 0 0.418 0.040 0.586 0.121s0.3 0.195 0.398 0.341 0.151 0.318 0.161 0.516h-0.669c-0.019-0.128-0.069-0.23-0.15-0.308-0.080-0.079-0.185-0.118-0.315-0.118-0.11 0-0.206 0.030-0.288 0.090-0.081 0.059-0.144 0.145-0.19 0.258s-0.068 0.25-0.068 0.411c0 0.163 0.022 0.302 0.067 0.416 0.045 0.114 0.109 0.201 0.191 0.261s0.178 0.090 0.288 0.090c0.081 0 0.154-0.017 0.218-0.050 0.066-0.033 0.119-0.082 0.161-0.145 0.043-0.064 0.072-0.141 0.085-0.231h0.669c-0.011 0.195-0.064 0.367-0.16 0.516-0.094 0.148-0.225 0.263-0.391 0.346s-0.363 0.125-0.591 0.125z"></path>
            <path fill="#fff" style="fill: var(--color1, #fff)" d="M30.666 17.618c-0.263 0-0.489-0.053-0.679-0.16-0.189-0.108-0.334-0.26-0.436-0.456-0.102-0.198-0.153-0.431-0.153-0.701 0-0.263 0.051-0.494 0.153-0.692s0.246-0.353 0.431-0.464c0.186-0.111 0.405-0.166 0.656-0.166 0.169 0 0.326 0.027 0.471 0.082 0.146 0.053 0.274 0.134 0.383 0.241 0.11 0.108 0.195 0.243 0.256 0.406 0.061 0.162 0.092 0.352 0.092 0.569v0.195h-2.159v-0.439h1.491c0-0.102-0.022-0.193-0.067-0.271s-0.106-0.14-0.185-0.185c-0.078-0.046-0.168-0.068-0.271-0.068-0.108 0-0.203 0.025-0.286 0.075-0.082 0.049-0.146 0.115-0.193 0.198-0.047 0.082-0.070 0.174-0.072 0.275v0.418c0 0.127 0.023 0.236 0.070 0.328 0.048 0.092 0.115 0.163 0.201 0.213s0.189 0.075 0.308 0.075c0.079 0 0.151-0.011 0.216-0.033s0.122-0.055 0.168-0.1c0.047-0.044 0.082-0.099 0.107-0.163l0.656 0.043c-0.033 0.158-0.102 0.295-0.205 0.413-0.102 0.116-0.234 0.207-0.396 0.273-0.161 0.064-0.347 0.097-0.558 0.097z"></path>
        </symbol>
        <symbol id="icon-Logo-1" viewBox="0 0 32 32">
            <path fill="#fff" style="fill: var(--color1, #fff)" d="M0.132 13.819v1.13c0 0.344 0.419 0.528 0.676 0.287l1.224-1.13c0.268-0.247 0.093-0.683-0.274-0.683h-1.224c-0.221 0-0.402 0.178-0.402 0.396z"></path>
            <path fill="#fff" style="fill: var(--color1, #fff)" d="M5.923 13.423h-1.224c-0.361 0-0.542 0.436-0.274 0.683l1.224 1.13c0.256 0.235 0.676 0.057 0.676-0.287v-1.13c0-0.218-0.181-0.396-0.402-0.396z"></path>
            <path fill="#fff" style="fill: var(--color1, #fff)" d="M3.505 16.183l2.144 1.985c0.256 0.235 0.676 0.057 0.676-0.287v-1.142c0-0.109-0.047-0.212-0.128-0.287l-2.692-2.496c-0.157-0.143-0.396-0.143-0.554 0l-2.692 2.496c-0.082 0.075-0.128 0.178-0.128 0.287v1.142c0 0.344 0.419 0.528 0.676 0.287l2.144-1.985c0.157-0.143 0.396-0.143 0.554 0z"></path>
            <path fill="#fff" style="fill: var(--color1, #fff)" d="M8.786 17.568l-0.696-2.556h0.717l0.396 1.718h0.023l0.413-1.718h0.704l0.419 1.708h0.022l0.389-1.708h0.716l-0.694 2.556h-0.751l-0.439-1.608h-0.032l-0.439 1.608h-0.749z"></path>
            <path fill="#fff" style="fill: var(--color1, #fff)" d="M12.978 16.090v1.478h-0.709v-3.409h0.689v1.303h0.030c0.058-0.151 0.151-0.269 0.28-0.354 0.129-0.087 0.29-0.13 0.484-0.13 0.178 0 0.332 0.039 0.464 0.117 0.133 0.077 0.236 0.187 0.31 0.331 0.074 0.143 0.111 0.315 0.11 0.514v1.628h-0.709v-1.501c0.001-0.158-0.039-0.28-0.12-0.368-0.080-0.088-0.192-0.132-0.336-0.132-0.097 0-0.182 0.021-0.256 0.062-0.073 0.041-0.131 0.101-0.173 0.18-0.041 0.078-0.062 0.171-0.063 0.281z"></path>
            <path fill="#fff" style="fill: var(--color1, #fff)" d="M15.193 17.568v-2.556h0.709v2.556h-0.709zM15.55 14.682c-0.105 0-0.196-0.035-0.271-0.105-0.074-0.071-0.112-0.156-0.112-0.255 0-0.098 0.037-0.181 0.112-0.251 0.075-0.071 0.166-0.107 0.271-0.107s0.195 0.036 0.27 0.107c0.075 0.070 0.113 0.154 0.113 0.251 0 0.099-0.038 0.184-0.113 0.255-0.074 0.070-0.164 0.105-0.27 0.105z"></path>
            <path fill="#fff" style="fill: var(--color1, #fff)" d="M17.83 15.012v0.533h-1.54v-0.533h1.54zM16.64 14.399h0.709v2.383c0 0.065 0.010 0.116 0.030 0.153 0.020 0.035 0.048 0.060 0.083 0.075 0.037 0.014 0.079 0.022 0.127 0.022 0.033 0 0.067-0.003 0.1-0.008 0.033-0.007 0.059-0.012 0.077-0.015l0.112 0.528c-0.035 0.011-0.085 0.024-0.15 0.038-0.064 0.016-0.143 0.025-0.235 0.028-0.171 0.007-0.321-0.016-0.449-0.068-0.128-0.052-0.227-0.133-0.298-0.243s-0.106-0.249-0.105-0.416v-2.477z"></path>
            <path fill="#fff" style="fill: var(--color1, #fff)" d="M19.43 17.618c-0.263 0-0.489-0.053-0.679-0.16-0.189-0.108-0.334-0.26-0.436-0.456-0.102-0.198-0.153-0.431-0.153-0.701 0-0.263 0.051-0.494 0.153-0.692s0.246-0.353 0.431-0.464c0.186-0.111 0.405-0.166 0.656-0.166 0.169 0 0.326 0.027 0.471 0.082 0.146 0.053 0.274 0.134 0.383 0.241 0.11 0.108 0.195 0.243 0.256 0.406 0.061 0.162 0.092 0.352 0.092 0.569v0.195h-2.159v-0.439h1.491c0-0.102-0.022-0.193-0.067-0.271s-0.106-0.14-0.185-0.185c-0.078-0.046-0.168-0.068-0.271-0.068-0.108 0-0.203 0.025-0.286 0.075-0.082 0.049-0.146 0.115-0.193 0.198-0.047 0.082-0.070 0.174-0.072 0.275v0.418c0 0.127 0.023 0.236 0.070 0.328 0.048 0.092 0.115 0.163 0.201 0.213s0.189 0.075 0.308 0.075c0.079 0 0.151-0.011 0.216-0.033s0.122-0.055 0.168-0.1 0.082-0.099 0.107-0.163l0.656 0.043c-0.033 0.158-0.102 0.295-0.205 0.413-0.102 0.116-0.234 0.207-0.396 0.273-0.161 0.064-0.347 0.097-0.558 0.097z"></path>
            <path fill="#fff" style="fill: var(--color1, #fff)" d="M21.066 18.527v-3.515h0.699v0.429h0.032c0.031-0.069 0.076-0.139 0.135-0.21 0.060-0.072 0.138-0.132 0.233-0.18 0.097-0.049 0.216-0.073 0.36-0.073 0.186 0 0.358 0.049 0.516 0.146 0.158 0.097 0.284 0.242 0.378 0.438 0.094 0.194 0.141 0.438 0.141 0.731 0 0.285-0.046 0.526-0.138 0.722-0.091 0.195-0.215 0.343-0.373 0.444-0.156 0.1-0.332 0.15-0.526 0.15-0.138 0-0.255-0.023-0.351-0.068-0.095-0.046-0.174-0.103-0.235-0.171-0.061-0.070-0.108-0.14-0.14-0.211h-0.022v1.368h-0.709zM21.76 16.29c0 0.152 0.021 0.285 0.063 0.398s0.103 0.201 0.183 0.265c0.080 0.062 0.177 0.093 0.291 0.093 0.115 0 0.213-0.032 0.293-0.095 0.080-0.064 0.14-0.153 0.181-0.266 0.042-0.114 0.063-0.246 0.063-0.394 0-0.148-0.020-0.277-0.062-0.389s-0.102-0.2-0.181-0.263c-0.080-0.063-0.178-0.095-0.295-0.095-0.115 0-0.213 0.030-0.293 0.092-0.079 0.061-0.139 0.148-0.181 0.26s-0.063 0.244-0.063 0.396z"></path>
            <path fill="#fff" style="fill: var(--color1, #fff)" d="M24.761 17.616c-0.163 0-0.308-0.028-0.436-0.085-0.128-0.058-0.229-0.143-0.303-0.255-0.073-0.113-0.11-0.254-0.11-0.423 0-0.142 0.026-0.261 0.078-0.358s0.123-0.174 0.213-0.233c0.090-0.059 0.192-0.103 0.306-0.133 0.115-0.030 0.236-0.051 0.363-0.063 0.149-0.016 0.268-0.030 0.36-0.043 0.091-0.014 0.157-0.036 0.198-0.063s0.062-0.069 0.062-0.123v-0.010c0-0.105-0.033-0.187-0.1-0.245-0.065-0.058-0.159-0.087-0.28-0.087-0.128 0-0.229 0.028-0.305 0.085-0.075 0.055-0.125 0.125-0.15 0.21l-0.656-0.053c0.033-0.155 0.099-0.29 0.196-0.403 0.098-0.114 0.224-0.202 0.378-0.263 0.155-0.062 0.335-0.093 0.539-0.093 0.142 0 0.278 0.017 0.408 0.050 0.131 0.033 0.247 0.085 0.348 0.155 0.102 0.070 0.183 0.16 0.241 0.27 0.059 0.109 0.088 0.239 0.088 0.391v1.724h-0.672v-0.355h-0.020c-0.041 0.080-0.096 0.15-0.165 0.211-0.069 0.060-0.151 0.107-0.248 0.141-0.097 0.033-0.208 0.050-0.335 0.050zM24.964 17.127c0.104 0 0.196-0.021 0.276-0.062 0.080-0.042 0.143-0.099 0.188-0.17s0.068-0.151 0.068-0.241v-0.271c-0.022 0.014-0.053 0.028-0.092 0.040-0.038 0.011-0.080 0.022-0.128 0.032-0.048 0.009-0.095 0.017-0.143 0.025-0.048 0.007-0.091 0.013-0.13 0.018-0.083 0.012-0.156 0.032-0.218 0.058s-0.11 0.063-0.145 0.108c-0.034 0.044-0.052 0.1-0.052 0.166 0 0.097 0.035 0.17 0.105 0.221 0.071 0.050 0.161 0.075 0.27 0.075z"></path>
            <path fill="#fff" style="fill: var(--color1, #fff)" d="M27.906 17.618c-0.262 0-0.487-0.055-0.676-0.166-0.188-0.112-0.332-0.267-0.433-0.466-0.1-0.199-0.15-0.427-0.15-0.686 0-0.262 0.050-0.492 0.151-0.689 0.102-0.199 0.247-0.353 0.434-0.464 0.188-0.112 0.411-0.168 0.669-0.168 0.223 0 0.418 0.040 0.586 0.121s0.3 0.195 0.398 0.341 0.151 0.318 0.161 0.516h-0.669c-0.019-0.128-0.069-0.23-0.15-0.308-0.080-0.079-0.185-0.118-0.315-0.118-0.11 0-0.206 0.030-0.288 0.090-0.081 0.059-0.144 0.145-0.19 0.258s-0.068 0.25-0.068 0.411c0 0.163 0.022 0.302 0.067 0.416 0.045 0.114 0.109 0.201 0.191 0.261s0.178 0.090 0.288 0.090c0.081 0 0.154-0.017 0.218-0.050 0.066-0.033 0.119-0.082 0.161-0.145 0.043-0.064 0.072-0.141 0.085-0.231h0.669c-0.011 0.195-0.064 0.367-0.16 0.516-0.094 0.148-0.225 0.263-0.391 0.346s-0.363 0.125-0.591 0.125z"></path>
            <path fill="#fff" style="fill: var(--color1, #fff)" d="M30.666 17.618c-0.263 0-0.489-0.053-0.679-0.16-0.189-0.108-0.334-0.26-0.436-0.456-0.102-0.198-0.153-0.431-0.153-0.701 0-0.263 0.051-0.494 0.153-0.692s0.246-0.353 0.431-0.464c0.186-0.111 0.405-0.166 0.656-0.166 0.169 0 0.326 0.027 0.471 0.082 0.146 0.053 0.274 0.134 0.383 0.241 0.11 0.108 0.195 0.243 0.256 0.406 0.061 0.162 0.092 0.352 0.092 0.569v0.195h-2.159v-0.439h1.491c0-0.102-0.022-0.193-0.067-0.271s-0.106-0.14-0.185-0.185c-0.078-0.046-0.168-0.068-0.271-0.068-0.108 0-0.203 0.025-0.286 0.075-0.082 0.049-0.146 0.115-0.193 0.198-0.047 0.082-0.070 0.174-0.072 0.275v0.418c0 0.127 0.023 0.236 0.070 0.328 0.048 0.092 0.115 0.163 0.201 0.213s0.189 0.075 0.308 0.075c0.079 0 0.151-0.011 0.216-0.033s0.122-0.055 0.168-0.1c0.047-0.044 0.082-0.099 0.107-0.163l0.656 0.043c-0.033 0.158-0.102 0.295-0.205 0.413-0.102 0.116-0.234 0.207-0.396 0.273-0.161 0.064-0.347 0.097-0.558 0.097z"></path>
        </symbol>
        <symbol id="icon-Logo" viewBox="0 0 32 32">
            <path fill="#4f9cf9" style="fill: var(--color2, #4f9cf9)" d="M0.172 13.822v1.129c0 0.344 0.419 0.527 0.675 0.286l1.221-1.129c0.268-0.246 0.093-0.682-0.273-0.682h-1.222c-0.221 0-0.401 0.178-0.401 0.395z"></path>
            <path fill="#4f9cf9" style="fill: var(--color2, #4f9cf9)" d="M5.954 13.427h-1.221c-0.361 0-0.541 0.435-0.273 0.682l1.221 1.129c0.256 0.235 0.675 0.057 0.675-0.286v-1.129c0-0.218-0.18-0.395-0.401-0.395z"></path>
            <path fill="#4f9cf9" style="fill: var(--color2, #4f9cf9)" d="M3.54 16.182l2.14 1.982c0.256 0.235 0.675 0.057 0.675-0.286v-1.14c0-0.109-0.047-0.212-0.128-0.286l-2.687-2.492c-0.157-0.143-0.396-0.143-0.553 0l-2.687 2.492c-0.081 0.074-0.128 0.178-0.128 0.286v1.14c0 0.344 0.419 0.527 0.675 0.286l2.141-1.982c0.157-0.143 0.396-0.143 0.553 0z"></path>
            <path fill="#4f9cf9" style="fill: var(--color2, #4f9cf9)" d="M8.813 17.565l-0.694-2.552h0.716l0.395 1.715h0.023l0.412-1.715h0.703l0.419 1.705h0.022l0.389-1.705h0.714l-0.693 2.552h-0.749l-0.439-1.605h-0.032l-0.439 1.605h-0.748z"></path>
            <path fill="#4f9cf9" style="fill: var(--color2, #4f9cf9)" d="M12.997 16.090v1.476h-0.708v-3.403h0.688v1.301h0.030c0.058-0.151 0.151-0.269 0.279-0.354 0.128-0.086 0.29-0.13 0.484-0.13 0.177 0 0.332 0.039 0.464 0.116 0.133 0.076 0.236 0.187 0.309 0.331 0.074 0.143 0.111 0.314 0.11 0.513v1.625h-0.708v-1.499c0.001-0.157-0.039-0.28-0.12-0.367-0.080-0.088-0.192-0.131-0.336-0.131-0.096 0-0.182 0.021-0.256 0.061-0.073 0.041-0.131 0.101-0.173 0.179-0.041 0.078-0.062 0.171-0.063 0.281z"></path>
            <path fill="#4f9cf9" style="fill: var(--color2, #4f9cf9)" d="M15.209 17.565v-2.552h0.708v2.552h-0.708zM15.565 14.684c-0.105 0-0.196-0.035-0.271-0.105-0.074-0.071-0.111-0.156-0.111-0.254 0-0.097 0.037-0.181 0.111-0.251 0.075-0.071 0.166-0.106 0.271-0.106s0.195 0.035 0.269 0.106c0.075 0.070 0.113 0.153 0.113 0.251 0 0.099-0.038 0.183-0.113 0.254-0.074 0.070-0.164 0.105-0.269 0.105z"></path>
            <path fill="#4f9cf9" style="fill: var(--color2, #4f9cf9)" d="M17.841 15.013v0.532h-1.537v-0.532h1.537zM16.653 14.402h0.708v2.379c0 0.065 0.010 0.116 0.030 0.153 0.020 0.035 0.048 0.060 0.083 0.075 0.037 0.014 0.079 0.022 0.126 0.022 0.033 0 0.066-0.003 0.1-0.008 0.033-0.007 0.059-0.012 0.076-0.015l0.111 0.527c-0.035 0.011-0.085 0.024-0.15 0.038-0.064 0.015-0.142 0.025-0.234 0.028-0.171 0.007-0.32-0.016-0.449-0.068-0.127-0.052-0.227-0.133-0.297-0.243s-0.106-0.248-0.105-0.415v-2.472z"></path>
            <path fill="#4f9cf9" style="fill: var(--color2, #4f9cf9)" d="M19.438 17.615c-0.263 0-0.489-0.053-0.678-0.16-0.188-0.107-0.333-0.259-0.435-0.455-0.102-0.197-0.153-0.43-0.153-0.7 0-0.263 0.051-0.493 0.153-0.691s0.245-0.353 0.43-0.464c0.186-0.111 0.404-0.166 0.655-0.166 0.168 0 0.325 0.027 0.47 0.081 0.146 0.053 0.274 0.133 0.382 0.241 0.11 0.107 0.195 0.243 0.256 0.405 0.061 0.162 0.091 0.351 0.091 0.568v0.194h-2.155v-0.439h1.489c0-0.102-0.022-0.192-0.066-0.271s-0.106-0.14-0.184-0.184c-0.078-0.045-0.168-0.068-0.271-0.068-0.107 0-0.203 0.025-0.286 0.075-0.082 0.049-0.146 0.115-0.193 0.198-0.047 0.082-0.070 0.173-0.071 0.274v0.417c0 0.126 0.023 0.235 0.070 0.327 0.048 0.092 0.115 0.163 0.201 0.213s0.189 0.075 0.307 0.075c0.079 0 0.151-0.011 0.216-0.033s0.121-0.055 0.168-0.1c0.047-0.044 0.082-0.099 0.106-0.163l0.655 0.043c-0.033 0.157-0.101 0.295-0.204 0.412-0.102 0.116-0.234 0.207-0.395 0.273-0.161 0.064-0.346 0.096-0.557 0.096z"></path>
            <path fill="#4f9cf9" style="fill: var(--color2, #4f9cf9)" d="M21.072 18.523v-3.509h0.698v0.429h0.032c0.031-0.069 0.076-0.138 0.135-0.209 0.060-0.072 0.137-0.132 0.233-0.179 0.096-0.049 0.216-0.073 0.359-0.073 0.186 0 0.358 0.049 0.515 0.146 0.157 0.096 0.283 0.242 0.377 0.437 0.094 0.194 0.141 0.437 0.141 0.729 0 0.285-0.046 0.525-0.138 0.721-0.091 0.195-0.215 0.343-0.372 0.444-0.156 0.1-0.331 0.15-0.525 0.15-0.137 0-0.254-0.023-0.351-0.068-0.095-0.045-0.173-0.102-0.234-0.171-0.061-0.070-0.107-0.14-0.14-0.211h-0.022v1.366h-0.708zM21.764 16.289c0 0.152 0.021 0.284 0.063 0.397s0.103 0.201 0.183 0.264c0.080 0.062 0.177 0.093 0.291 0.093 0.115 0 0.213-0.032 0.292-0.095 0.080-0.064 0.14-0.153 0.181-0.266 0.042-0.114 0.063-0.245 0.063-0.394 0-0.147-0.020-0.277-0.061-0.389s-0.101-0.199-0.181-0.263c-0.080-0.063-0.178-0.095-0.294-0.095-0.115 0-0.213 0.030-0.292 0.091-0.079 0.061-0.139 0.147-0.181 0.259s-0.063 0.244-0.063 0.395z"></path>
            <path fill="#4f9cf9" style="fill: var(--color2, #4f9cf9)" d="M24.76 17.614c-0.163 0-0.308-0.028-0.435-0.085-0.127-0.058-0.228-0.142-0.302-0.254-0.073-0.113-0.11-0.254-0.11-0.422 0-0.142 0.026-0.261 0.078-0.357s0.123-0.174 0.213-0.233 0.192-0.103 0.306-0.133c0.115-0.030 0.236-0.051 0.362-0.063 0.148-0.015 0.268-0.030 0.359-0.043 0.091-0.014 0.157-0.035 0.198-0.063s0.061-0.069 0.061-0.123v-0.010c0-0.105-0.033-0.187-0.1-0.244-0.065-0.058-0.158-0.086-0.279-0.086-0.127 0-0.229 0.028-0.304 0.085-0.075 0.055-0.125 0.125-0.15 0.209l-0.655-0.053c0.033-0.155 0.099-0.289 0.196-0.402 0.098-0.114 0.223-0.202 0.377-0.263 0.155-0.062 0.335-0.093 0.538-0.093 0.142 0 0.277 0.017 0.407 0.050 0.131 0.033 0.246 0.085 0.347 0.155 0.102 0.070 0.182 0.16 0.241 0.269 0.059 0.109 0.088 0.239 0.088 0.39v1.721h-0.671v-0.354h-0.020c-0.041 0.080-0.096 0.15-0.165 0.211-0.069 0.060-0.151 0.107-0.248 0.141-0.096 0.033-0.208 0.050-0.334 0.050zM24.963 17.125c0.104 0 0.196-0.020 0.276-0.061 0.080-0.042 0.142-0.099 0.188-0.169s0.068-0.151 0.068-0.241v-0.271c-0.022 0.014-0.053 0.028-0.091 0.040-0.038 0.011-0.080 0.022-0.128 0.032-0.048 0.009-0.095 0.017-0.143 0.025-0.048 0.007-0.091 0.013-0.13 0.018-0.083 0.012-0.156 0.032-0.218 0.058s-0.11 0.063-0.145 0.108c-0.034 0.044-0.052 0.1-0.052 0.166 0 0.096 0.035 0.17 0.105 0.221 0.071 0.050 0.161 0.075 0.269 0.075z"></path>
            <path fill="#4f9cf9" style="fill: var(--color2, #4f9cf9)" d="M27.9 17.615c-0.261 0-0.486-0.055-0.675-0.166-0.187-0.112-0.331-0.267-0.432-0.465-0.1-0.198-0.15-0.426-0.15-0.685 0-0.261 0.050-0.491 0.151-0.688 0.102-0.198 0.246-0.353 0.434-0.464 0.187-0.112 0.41-0.168 0.668-0.168 0.223 0 0.418 0.040 0.585 0.121s0.3 0.194 0.397 0.341c0.098 0.146 0.151 0.318 0.161 0.515h-0.668c-0.019-0.127-0.069-0.23-0.15-0.307-0.080-0.079-0.184-0.118-0.314-0.118-0.11 0-0.205 0.030-0.287 0.090-0.081 0.059-0.144 0.145-0.189 0.258s-0.068 0.25-0.068 0.41c0 0.163 0.022 0.301 0.066 0.415 0.045 0.114 0.109 0.201 0.191 0.261s0.178 0.090 0.287 0.090c0.081 0 0.153-0.017 0.218-0.050 0.065-0.033 0.119-0.081 0.161-0.145 0.043-0.064 0.071-0.141 0.085-0.231h0.668c-0.011 0.195-0.064 0.367-0.16 0.515-0.094 0.147-0.224 0.263-0.39 0.346s-0.363 0.125-0.59 0.125z"></path>
            <path fill="#4f9cf9" style="fill: var(--color2, #4f9cf9)" d="M30.656 17.615c-0.262 0-0.488-0.053-0.678-0.16-0.188-0.107-0.333-0.259-0.435-0.455-0.102-0.197-0.153-0.43-0.153-0.7 0-0.263 0.051-0.493 0.153-0.691s0.245-0.353 0.43-0.464c0.186-0.111 0.404-0.166 0.655-0.166 0.168 0 0.325 0.027 0.47 0.081 0.146 0.053 0.274 0.133 0.382 0.241 0.11 0.107 0.195 0.243 0.256 0.405 0.061 0.162 0.091 0.351 0.091 0.568v0.194h-2.155v-0.439h1.489c0-0.102-0.022-0.192-0.066-0.271s-0.106-0.14-0.184-0.184c-0.078-0.045-0.168-0.068-0.271-0.068-0.107 0-0.203 0.025-0.286 0.075-0.082 0.049-0.146 0.115-0.193 0.198-0.047 0.082-0.070 0.173-0.071 0.274v0.417c0 0.126 0.023 0.235 0.070 0.327 0.048 0.092 0.115 0.163 0.201 0.213s0.189 0.075 0.307 0.075c0.079 0 0.151-0.011 0.216-0.033s0.121-0.055 0.168-0.1 0.082-0.099 0.106-0.163l0.655 0.043c-0.033 0.157-0.101 0.295-0.204 0.412-0.102 0.116-0.234 0.207-0.395 0.273-0.161 0.064-0.346 0.096-0.557 0.096z"></path>
        </symbol>
        <symbol id="icon-Slider" viewBox="0 0 32 32">
            <path fill="#4f9cf9" style="fill: var(--color2, #4f9cf9)" d="M6.451 16c0 1.763-1.429 3.192-3.192 3.192s-3.192-1.429-3.192-3.192c0-1.763 1.429-3.192 3.192-3.192s3.192 1.429 3.192 3.192z"></path>
            <path fill="#043873" style="fill: var(--color3, #043873)" d="M19.218 16c0 1.763-1.429 3.192-3.192 3.192s-3.192-1.429-3.192-3.192c0-1.763 1.429-3.192 3.192-3.192s3.192 1.429 3.192 3.192z"></path>
            <path fill="#4f9cf9" style="fill: var(--color2, #4f9cf9)" d="M31.984 16c0 1.763-1.429 3.192-3.192 3.192s-3.192-1.429-3.192-3.192c0-1.763 1.429-3.192 3.192-3.192s3.192 1.429 3.192 3.192z"></path>
        </symbol>
        <symbol id="icon-Arrow" viewBox="0 0 32 32">
            <path fill="none" stroke="#4f9cf9" style="stroke: var(--color2, #4f9cf9)" stroke-linejoin="miter" stroke-linecap="square" stroke-miterlimit="4" stroke-width="3.3212" d="M9.25 3.036l13.118 13.118-13.118 13.118"></path>
        </symbol>
        <symbol id="icon-Left-Arrow" viewBox="0 0 32 32">
            <path fill="#e6f1fe" style="fill: var(--color4, #e6f1fe)" d="M20.749 14.815c0 2.642-2.142 4.784-4.784 4.784s-4.784-2.142-4.784-4.784c0-2.642 2.142-4.784 4.784-4.784s4.784 2.142 4.784 4.784z"></path>
            <path fill="none" stroke="#4f9cf9" style="stroke: var(--color2, #4f9cf9)" stroke-linejoin="miter" stroke-linecap="square" stroke-miterlimit="4" stroke-width="0.4784" d="M16.922 13.013l-1.889 1.889 1.889 1.889"></path>
        </symbol>
        <symbol id="icon-Ckeck" viewBox="0 0 32 32">
            <path fill="none" stroke="#1a3453" style="stroke: var(--color5, #1a3453)" stroke-linejoin="round" stroke-linecap="round" stroke-miterlimit="4" stroke-width="1.987" d="M30.941 14.637v1.371c-0.002 3.214-1.042 6.341-2.967 8.915s-4.629 4.457-7.711 5.368c-3.082 0.911-6.375 0.802-9.39-0.312s-5.588-3.172-7.337-5.868c-1.749-2.696-2.58-5.885-2.368-9.092s1.454-6.259 3.542-8.702 4.91-4.145 8.044-4.854c3.135-0.708 6.414-0.384 9.35 0.924"></path>
            <path fill="none" stroke="#1a3453" style="stroke: var(--color5, #1a3453)" stroke-linejoin="round" stroke-linecap="round" stroke-miterlimit="4" stroke-width="1.987" d="M30.941 4.086l-14.903 14.918-4.471-4.471"></path>
        </symbol>
        <symbol id="icon-Group-7" viewBox="0 0 32 32">
            <path fill="#1a3453" style="fill: var(--color5, #1a3453)" d="M16.014 0.245c-0.563 0-1.126 0.030-1.686 0.091-0.513 0.052-1.020 0.138-1.52 0.243-0.097 0.020-0.194 0.042-0.29 0.064-2.947 0.671-5.637 2.177-7.749 4.339-0.196 0.201-0.389 0.409-0.577 0.622-5.705 6.549-5.020 16.483 1.529 22.188 6.27 5.462 15.708 5.098 21.54-0.829 0.197-0.201 0.389-0.409 0.577-0.622 2.518-2.867 3.905-6.553 3.903-10.368 0-8.685-7.041-15.726-15.726-15.726zM5.468 5.767c0.083-0.086 0.169-0.168 0.253-0.252 0.098-0.096 0.194-0.192 0.294-0.285 0.088-0.082 0.178-0.16 0.267-0.24 0.101-0.090 0.202-0.179 0.306-0.266 0.091-0.077 0.185-0.151 0.278-0.225 0.105-0.084 0.21-0.168 0.318-0.248 0.095-0.072 0.192-0.142 0.29-0.21 0.109-0.078 0.218-0.157 0.328-0.23 0.099-0.067 0.199-0.132 0.3-0.197 0.112-0.072 0.225-0.143 0.339-0.21 0.102-0.061 0.206-0.121 0.309-0.18 0.116-0.066 0.233-0.131 0.35-0.193 0.105-0.056 0.21-0.111 0.315-0.164 0.12-0.060 0.24-0.118 0.361-0.176 0.105-0.050 0.214-0.1 0.322-0.147 0.123-0.052 0.248-0.105 0.373-0.157 0.108-0.045 0.216-0.088 0.326-0.13 0.127-0.048 0.255-0.093 0.384-0.138 0.11-0.038 0.219-0.077 0.33-0.113 0.131-0.042 0.262-0.081 0.394-0.119 0.111-0.032 0.22-0.065 0.331-0.095 0.042-0.011 0.085-0.020 0.127-0.031-1.552 1.507-2.703 3.377-3.35 5.44-1.244-0.328-2.449-0.792-3.592-1.382 0.017-0.018 0.032-0.037 0.047-0.052zM4.714 6.611c1.259 0.682 2.595 1.214 3.978 1.583-0.678 2.359-1.034 4.798-1.058 7.252h-6.285c0.114-3.236 1.298-6.343 3.365-8.836zM4.714 25.331c-2.068-2.492-3.251-5.599-3.365-8.836h6.285c0.024 2.454 0.38 4.894 1.058 7.252-1.384 0.37-2.719 0.901-3.978 1.583zM12.232 30.152c-0.106-0.027-0.215-0.061-0.325-0.093-0.133-0.039-0.266-0.078-0.397-0.12-0.111-0.036-0.22-0.074-0.329-0.112-0.129-0.045-0.258-0.090-0.385-0.139-0.109-0.041-0.217-0.085-0.325-0.129-0.125-0.052-0.251-0.105-0.375-0.157-0.107-0.047-0.213-0.096-0.319-0.146-0.122-0.058-0.244-0.116-0.367-0.177-0.105-0.052-0.21-0.105-0.315-0.162-0.118-0.063-0.236-0.128-0.353-0.196-0.105-0.058-0.204-0.118-0.306-0.179-0.115-0.069-0.229-0.14-0.342-0.213-0.1-0.063-0.199-0.128-0.297-0.194-0.112-0.075-0.222-0.154-0.332-0.233-0.096-0.069-0.192-0.137-0.286-0.21-0.109-0.082-0.215-0.166-0.321-0.251-0.093-0.074-0.185-0.147-0.276-0.223-0.105-0.087-0.206-0.178-0.308-0.268-0.089-0.079-0.179-0.157-0.266-0.238-0.1-0.093-0.197-0.19-0.295-0.286-0.084-0.083-0.17-0.166-0.253-0.251-0.015-0.016-0.030-0.033-0.045-0.049 1.143-0.591 2.348-1.055 3.592-1.383 0.647 2.064 1.799 3.933 3.35 5.44-0.042-0.011-0.085-0.020-0.128-0.031zM15.49 30.608c-2.243-0.319-4.209-2.66-5.447-6.117 1.789-0.4 3.614-0.615 5.447-0.641v6.758zM15.49 22.801c-1.944 0.026-3.88 0.256-5.776 0.689-0.658-2.274-1.005-4.627-1.032-6.995h6.808v6.306zM15.49 15.447h-6.808c0.027-2.367 0.374-4.72 1.032-6.995 1.896 0.432 3.832 0.663 5.776 0.689v6.306zM15.49 8.093c-1.833-0.026-3.658-0.24-5.447-0.641 1.237-3.457 3.203-5.798 5.447-6.117v6.758zM27.315 6.611c2.068 2.492 3.251 5.599 3.365 8.836h-6.285c-0.024-2.454-0.38-4.894-1.058-7.252 1.384-0.37 2.719-0.901 3.978-1.583zM19.792 1.79c0.11 0.027 0.22 0.062 0.329 0.094 0.133 0.039 0.266 0.078 0.397 0.12 0.111 0.036 0.22 0.074 0.329 0.112 0.129 0.045 0.258 0.090 0.385 0.139 0.109 0.041 0.217 0.085 0.325 0.129 0.125 0.052 0.251 0.105 0.375 0.157 0.107 0.047 0.213 0.096 0.319 0.146 0.122 0.058 0.244 0.116 0.367 0.177 0.105 0.052 0.21 0.105 0.315 0.162 0.119 0.063 0.236 0.128 0.353 0.196 0.105 0.058 0.204 0.118 0.306 0.179 0.115 0.069 0.229 0.14 0.342 0.213 0.1 0.063 0.199 0.128 0.297 0.194 0.112 0.075 0.222 0.154 0.331 0.232 0.096 0.069 0.192 0.138 0.287 0.21 0.108 0.081 0.214 0.166 0.32 0.251 0.092 0.073 0.185 0.147 0.276 0.223 0.105 0.087 0.206 0.178 0.308 0.268 0.089 0.079 0.179 0.157 0.266 0.238 0.1 0.093 0.197 0.19 0.295 0.286 0.084 0.083 0.17 0.166 0.253 0.251 0.015 0.016 0.030 0.033 0.045 0.049-1.143 0.591-2.348 1.055-3.592 1.383-0.648-2.064-1.801-3.934-3.354-5.44 0.042 0.011 0.085 0.020 0.128 0.031zM16.538 1.335c2.243 0.319 4.209 2.66 5.447 6.117-1.789 0.401-3.614 0.615-5.447 0.641v-6.758zM16.538 9.141c1.944-0.026 3.88-0.256 5.776-0.689 0.658 2.274 1.005 4.627 1.032 6.995h-6.808v-6.306zM16.538 16.495h6.808c-0.027 2.367-0.374 4.72-1.032 6.995-1.896-0.432-3.832-0.663-5.776-0.689v-6.306zM16.538 30.608v-6.758c1.833 0.026 3.658 0.24 5.447 0.641-1.237 3.457-3.203 5.798-5.447 6.117zM26.561 26.175c-0.083 0.085-0.168 0.168-0.253 0.251-0.098 0.096-0.195 0.193-0.295 0.286-0.087 0.081-0.177 0.157-0.266 0.238-0.102 0.090-0.203 0.18-0.307 0.267-0.092 0.077-0.185 0.15-0.278 0.225-0.105 0.084-0.21 0.168-0.318 0.248-0.095 0.072-0.192 0.142-0.29 0.21-0.109 0.078-0.218 0.157-0.328 0.23-0.099 0.067-0.199 0.132-0.3 0.196-0.112 0.072-0.225 0.142-0.339 0.21-0.105 0.061-0.205 0.121-0.308 0.18-0.116 0.066-0.233 0.131-0.35 0.193-0.105 0.056-0.21 0.111-0.314 0.164-0.12 0.060-0.24 0.118-0.361 0.176-0.105 0.050-0.214 0.1-0.322 0.147-0.123 0.052-0.248 0.105-0.373 0.157-0.109 0.044-0.217 0.088-0.326 0.129-0.128 0.049-0.256 0.094-0.385 0.139-0.109 0.038-0.218 0.077-0.329 0.112-0.131 0.042-0.262 0.081-0.396 0.119-0.11 0.033-0.22 0.065-0.33 0.095-0.042 0.011-0.085 0.020-0.127 0.031 1.552-1.507 2.703-3.377 3.35-5.44 1.244 0.328 2.449 0.792 3.592 1.382-0.017 0.019-0.032 0.037-0.047 0.053zM27.315 25.331c-1.259-0.682-2.595-1.214-3.978-1.583 0.678-2.359 1.034-4.798 1.058-7.252h6.285c-0.114 3.236-1.298 6.343-3.365 8.836z"></path>
        </symbol>
        <symbol id="icon-outlook" viewBox="0 0 32 32">
            <path fill="#1976d2" style="fill: var(--color6, #1976d2)" d="M30.727 7.217h-13.745c-0.542 0-0.982 0.44-0.982 0.982s0.44 0.982 0.982 0.982h10.884l-6.032 4.691-4.326-2.751-1.052 1.657 4.909 3.122c0.159 0.102 0.344 0.153 0.526 0.153 0.212 0 0.426-0.069 0.603-0.206l7.251-5.641v12.72h-12.763c-0.542 0-0.982 0.44-0.982 0.982s0.44 0.982 0.982 0.982h13.745c0.542 0 0.982-0.44 0.982-0.982v-15.708c0-0.542-0.44-0.982-0.982-0.982z"></path>
            <path fill="#2196f3" style="fill: var(--color7, #2196f3)" d="M17.609 1.552c-0.224-0.187-0.524-0.267-0.807-0.208l-15.708 2.945c-0.465 0.086-0.801 0.491-0.801 0.964v21.599c0 0.471 0.336 0.878 0.801 0.964l15.708 2.945c0.059 0.012 0.12 0.018 0.181 0.018 0.228 0 0.45-0.079 0.626-0.226 0.226-0.187 0.355-0.465 0.355-0.756v-27.489c0-0.293-0.13-0.569-0.355-0.756z"></path>
            <path fill="#fafafa" style="fill: var(--color8, #fafafa)" d="M9.128 22.925c-2.706 0-4.909-2.643-4.909-5.891s2.203-5.891 4.909-5.891c2.706 0 4.909 2.643 4.909 5.891s-2.203 5.891-4.909 5.891zM9.128 13.107c-1.624 0-2.945 1.761-2.945 3.927s1.321 3.927 2.945 3.927 2.945-1.761 2.945-3.927c0-2.166-1.321-3.927-2.945-3.927z"></path>
        </symbol>
        <symbol id="icon-Facebook" viewBox="0 0 32 32">
            <path fill="#1a3453" style="fill: var(--color5, #1a3453)" d="M12.137 18.039c-0.12 0-2.757 0-3.956 0-0.639 0-0.839-0.24-0.839-0.839 0-1.598 0-3.236 0-4.835 0-0.639 0.24-0.839 0.839-0.839h3.956c0-0.12 0-2.437 0-3.516 0-1.598 0.28-3.117 1.079-4.515 0.839-1.438 2.038-2.397 3.556-2.957 0.999-0.36 1.998-0.519 3.077-0.519h3.916c0.559 0 0.799 0.24 0.799 0.799v4.555c0 0.559-0.24 0.799-0.799 0.799-1.079 0-2.158 0-3.236 0.040-1.079 0-1.638 0.519-1.638 1.638-0.040 1.199 0 2.357 0 3.596h4.635c0.639 0 0.879 0.24 0.879 0.879v4.835c0 0.639-0.2 0.839-0.879 0.839-1.438 0-4.515 0-4.635 0v13.025c0 0.679-0.2 0.919-0.919 0.919-1.678 0-3.316 0-4.994 0-0.599 0-0.839-0.24-0.839-0.839 0-4.195 0-12.946 0-13.065z"></path>
        </symbol>
        <symbol id="icon-Linkedin" viewBox="0 0 32 32">
            <path fill="#1a3453" style="fill: var(--color5, #1a3453)" d="M31.512 31.634v-0.001h0.008v-11.558c0-5.654-1.205-10.010-7.749-10.010-3.146 0-5.257 1.744-6.119 3.397h-0.091v-2.869h-6.204v21.040h6.461v-10.418c0-2.743 0.515-5.396 3.878-5.396 3.313 0 3.363 3.13 3.363 5.572v10.244h6.454z"></path>
            <path fill="#1a3453" style="fill: var(--color5, #1a3453)" d="M0.572 10.534h6.565v20.632h-6.565v-20.632z"></path>
            <path fill="#1a3453" style="fill: var(--color5, #1a3453)" d="M3.855 0.217c-2.071 0-3.751 1.673-3.751 3.734s1.68 3.769 3.751 3.769c2.071 0 3.751-1.708 3.751-3.769-0.001-2.061-1.682-3.734-3.751-3.734v0z"></path>
        </symbol>
        <symbol id="icon-Twitter" viewBox="0 0 32 32">
            <path fill="#1a3453" style="fill: var(--color5, #1a3453)" d="M31.889 6.028c-1.184 0.519-2.446 0.864-3.762 1.031 1.353-0.808 2.386-2.078 2.872-3.609-1.262 0.752-2.655 1.284-4.14 1.58-1.198-1.276-2.906-2.066-4.769-2.066-3.615 0-6.525 2.934-6.525 6.531 0 0.518 0.044 1.015 0.151 1.489-5.428-0.265-10.231-2.866-13.457-6.829-0.563 0.977-0.894 2.096-0.894 3.3 0 2.261 1.164 4.265 2.9 5.426-1.049-0.020-2.078-0.324-2.95-0.804 0 0.020 0 0.046 0 0.072 0 3.173 2.263 5.808 5.231 6.415-0.531 0.145-1.111 0.215-1.712 0.215-0.418 0-0.84-0.024-1.236-0.111 0.846 2.586 3.246 4.486 6.101 4.548-2.221 1.738-5.042 2.785-8.095 2.785-0.535 0-1.049-0.024-1.562-0.090 2.892 1.865 6.32 2.93 10.016 2.93 12.014 0 18.583-9.952 18.583-18.579 0-0.289-0.010-0.567-0.024-0.844 1.296-0.92 2.384-2.068 3.272-3.39z"></path>
        </symbol>
        <symbol id="icon-Adroid" viewBox="0 0 27 32">
            <path fill="#1a3453" style="fill: var(--color5, #1a3453)" opacity="0.9" d="M2.323 10.394c-0.541 0-1.001 0.189-1.378 0.566s-0.566 0.831-0.566 1.359v8.118c0 0.542 0.189 1.001 0.566 1.378s0.837 0.566 1.378 0.566c0.541 0 0.997-0.189 1.369-0.566s0.557-0.837 0.557-1.378v-8.118c0-0.529-0.189-0.982-0.566-1.359s-0.831-0.566-1.36-0.566z"></path>
            <path fill="#1a3453" style="fill: var(--color5, #1a3453)" opacity="0.9" d="M17.957 3.106l1.34-2.473c0.088-0.164 0.057-0.289-0.094-0.378-0.164-0.076-0.29-0.038-0.378 0.113l-1.359 2.493c-1.196-0.529-2.461-0.794-3.795-0.794s-2.599 0.265-3.795 0.794l-1.359-2.493c-0.088-0.151-0.214-0.189-0.378-0.113-0.151 0.089-0.183 0.214-0.094 0.378l1.341 2.473c-1.359 0.693-2.442 1.659-3.247 2.898s-1.208 2.596-1.208 4.069h17.464c0-1.473-0.403-2.828-1.208-4.069s-1.882-2.205-3.228-2.898zM10.207 6.703c-0.145 0.145-0.318 0.218-0.519 0.218s-0.371-0.072-0.51-0.218c-0.138-0.145-0.208-0.317-0.208-0.519s0.069-0.374 0.208-0.519c0.138-0.145 0.308-0.217 0.51-0.217s0.374 0.072 0.519 0.217c0.145 0.145 0.217 0.318 0.217 0.519s-0.073 0.374-0.217 0.519zM18.164 6.703c-0.139 0.145-0.309 0.218-0.51 0.218s-0.375-0.072-0.519-0.218c-0.145-0.145-0.217-0.317-0.217-0.519s0.072-0.374 0.217-0.519c0.145-0.145 0.318-0.217 0.519-0.217s0.371 0.072 0.51 0.217c0.138 0.145 0.208 0.318 0.208 0.519s-0.069 0.374-0.208 0.519z"></path>
            <path fill="#1a3453" style="fill: var(--color5, #1a3453)" opacity="0.9" d="M5.005 23.326c0 0.58 0.201 1.070 0.604 1.473s0.894 0.604 1.473 0.604h1.397l0.019 4.286c0 0.541 0.189 1.001 0.566 1.378s0.831 0.566 1.359 0.566c0.541 0 1.001-0.189 1.378-0.566s0.566-0.837 0.566-1.378v-4.286h2.605v4.286c0 0.541 0.189 1.001 0.566 1.378s0.837 0.566 1.378 0.566c0.541 0 1.001-0.189 1.378-0.566s0.566-0.837 0.566-1.378v-4.286h1.416c0.566 0 1.051-0.201 1.454-0.604s0.604-0.893 0.604-1.473v-12.575h-17.331v12.574z"></path>
            <path fill="#1a3453" style="fill: var(--color5, #1a3453)" opacity="0.9" d="M25.017 10.394c-0.529 0-0.982 0.186-1.359 0.557s-0.566 0.828-0.566 1.369v8.118c0 0.542 0.189 1.001 0.566 1.378s0.831 0.566 1.359 0.566c0.541 0 1.001-0.189 1.378-0.566s0.566-0.837 0.566-1.378v-8.118c0-0.541-0.189-0.997-0.566-1.369s-0.837-0.557-1.378-0.557z"></path>
        </symbol>
        <symbol id="icon-Windows" viewBox="0 0 32 32">
            <path fill="#1a3453" style="fill: var(--color5, #1a3453)" d="M0.062 17.461v9.276l13.243 1.902v-11.178h-13.243z"></path>
            <path fill="#1a3453" style="fill: var(--color5, #1a3453)" d="M13.306 3.212l-13.243 1.902v9.276h13.243v-11.178z"></path>
            <path fill="#1a3453" style="fill: var(--color5, #1a3453)" d="M31.909 14.39v-14.006l-15.53 2.229v11.777h15.53z"></path>
            <path fill="#1a3453" style="fill: var(--color5, #1a3453)" d="M16.379 29.238l15.53 2.227v-14.004h-15.53v11.777z"></path>
        </symbol>
        <symbol id="icon-Apple" viewBox="0 0 26 32">
            <path fill="#1a3453" style="fill: var(--color5, #1a3453)" d="M21.723 17.827c-0.864-4.349 3.264-6.9 3.264-6.9s-1.608-2.327-4.311-2.926c-2.702-0.6-4.054 0.15-5.404 0.712-1.351 0.564-2.025 0.564-2.025 0.564-1.949 0-3.375-2.064-7.089-1.124-2.559 0.646-5.253 3.6-5.739 7.125-0.487 3.527 0.564 8.027 2.589 11.515 2.025 3.49 4.088 4.802 5.552 4.84 1.464 0.036 2.926-1.049 4.688-1.313 1.763-0.262 2.849 0.639 4.578 1.126 1.723 0.485 2.327 0.035 4.311-1.653 1.99-1.688 3.791-6.529 3.791-6.529s-3.341-1.084-4.205-5.436z"></path>
            <path fill="#1a3453" style="fill: var(--color5, #1a3453)" d="M17.898 5.188c1.914-1.951 1.266-4.971 1.266-4.971s-2.688 0.472-4.489 2.346c-1.8 1.875-1.502 4.837-1.502 4.837s2.811-0.263 4.725-2.212z"></path>
        </symbol>
        <symbol id="icon-google-calendar" viewBox="0 0 32 32">
            <path fill="#e3e7ea" style="fill: var(--color9, #e3e7ea)" d="M28.814 9.585h-25.771c-0.509 0-0.92-0.412-0.92-0.92v-5.645c0-1.523 1.239-2.761 2.761-2.761h22.090c1.523 0 2.761 1.239 2.761 2.761v5.645c0 0.509-0.412 0.92-0.92 0.92z"></path>
            <path fill="#babac0" style="fill: var(--color10, #babac0)" d="M26.974 0.258h-11.045v9.327h12.886c0.509 0 0.92-0.412 0.92-0.92v-5.645c0-1.523-1.239-2.761-2.761-2.761z"></path>
            <path fill="#4086f4" style="fill: var(--color11, #4086f4)" d="M2.086 19.709c0-0.001 0-0.002 0-0.002l-1.831-8.723c-0.129-0.828 0.092-1.657 0.608-2.264 0.534-0.626 1.307-0.976 2.117-0.976h25.845c0.81 0 1.583 0.35 2.117 0.976 0.515 0.608 0.736 1.436 0.608 2.227l-1.831 8.764 1.831 8.723c0.129 0.828-0.092 1.657-0.608 2.264-0.534 0.626-1.307 0.976-2.117 0.976h-25.845c-0.81 0-1.583-0.35-2.117-0.976-0.515-0.607-0.736-1.436-0.607-2.227 0 0 1.799-8.61 1.831-8.762z"></path>
            <path fill="#4175df" style="fill: var(--color12, #4175df)" d="M2.087 19.707c0 0-0 0.001-0 0.002h27.632l1.831-8.762c0.129-0.792-0.092-1.62-0.608-2.227-0.534-0.626-1.307-0.976-2.117-0.976h-25.845c-0.81 0-1.583 0.35-2.117 0.976-0.515 0.608-0.736 1.436-0.607 2.264l1.831 8.723z"></path>
            <path fill="#fff5f5" style="fill: var(--color13, #fff5f5)" d="M6.701 5.78c0.508 0 0.92-0.412 0.92-0.92s-0.412-0.92-0.92-0.92c-0.508 0-0.92 0.412-0.92 0.92s0.412 0.92 0.92 0.92z"></path>
            <path fill="#e3e7ea" style="fill: var(--color9, #e3e7ea)" d="M25.108 5.78c0.508 0 0.92-0.412 0.92-0.92s-0.412-0.92-0.92-0.92c-0.508 0-0.92 0.412-0.92 0.92s0.412 0.92 0.92 0.92z"></path>
            <path fill="#fff5f5" style="fill: var(--color13, #fff5f5)" d="M12.22 26.152c-1.557 0-2.953-0.986-3.471-2.455-0.17-0.479 0.081-1.005 0.561-1.174 0.477-0.171 1.005 0.082 1.174 0.561 0.26 0.733 0.958 1.227 1.736 1.227 1.015 0 1.841-0.826 1.841-1.841s-0.826-1.841-1.841-1.841h-1.144c-0.508 0-0.92-0.412-0.92-0.92s0.413-0.92 0.92-0.92h1.144c1.015 0 1.841-0.826 1.841-1.841s-0.826-1.841-1.841-1.841c-0.778 0-1.477 0.493-1.737 1.227-0.169 0.48-0.697 0.732-1.174 0.561-0.48-0.169-0.731-0.695-0.561-1.174 0.519-1.469 1.915-2.455 3.471-2.455 2.030 0 3.682 1.651 3.682 3.682 0 1.098-0.484 2.086-1.249 2.761 0.766 0.675 1.249 1.663 1.249 2.761 0 2.030-1.651 3.682-3.682 3.682z"></path>
            <path fill="#e3e7ea" style="fill: var(--color9, #e3e7ea)" d="M9.31 16.895c0.476 0.171 1.005-0.081 1.174-0.561 0.26-0.733 0.958-1.227 1.737-1.227 1.015 0 1.841 0.826 1.841 1.841s-0.826 1.841-1.841 1.841h-1.144c-0.508 0-0.92 0.412-0.92 0.92h4.497c0.766-0.675 1.249-1.663 1.249-2.761 0-2.030-1.651-3.682-3.682-3.682-1.557 0-2.953 0.986-3.471 2.455-0.17 0.479 0.081 1.005 0.561 1.174z"></path>
            <path fill="#fff5f5" style="fill: var(--color13, #fff5f5)" d="M21.426 26.152c-0.509 0-0.92-0.412-0.92-0.92v-9.325l-1.33 0.887c-0.424 0.28-0.995 0.167-1.276-0.255s-0.168-0.994 0.255-1.276l2.761-1.841c0.282-0.188 0.646-0.206 0.945-0.046s0.486 0.472 0.486 0.812v11.045c0 0.509-0.412 0.92-0.92 0.92z"></path>
            <path fill="#e3e7ea" style="fill: var(--color9, #e3e7ea)" d="M19.176 16.794l1.33-0.887v3.803h1.841v-5.522c0-0.34-0.187-0.652-0.486-0.812s-0.662-0.142-0.945 0.046l-2.761 1.841c-0.423 0.282-0.538 0.853-0.255 1.276s0.852 0.536 1.276 0.255z"></path>
        </symbol>
        <symbol id="icon-Quote" viewBox="0 0 32 32">
            <path fill="#1a3453" style="fill: var(--color5, #1a3453)" d="M31.983 9.404l-1.022-4.698c-7.356 0.337-12.456 3.398-12.456 12.399v10.361h12.852v-13.022h-4.867c0-2.888 1.812-4.587 5.493-5.040z"></path>
            <path fill="#1a3453" style="fill: var(--color5, #1a3453)" d="M13.614 9.405l-1.022-4.698c-7.356 0.337-12.456 3.398-12.456 12.399v10.361h12.852v-13.022h-4.87c0-2.888 1.812-4.587 5.495-5.040z"></path>
        </symbol>
        <symbol id="icon-Vector-3" viewBox="0 0 32 32">
            <path fill="none" stroke="#1a3453" style="stroke: var(--color5, #1a3453)" stroke-linejoin="round" stroke-linecap="round" stroke-miterlimit="4" stroke-width="3.0998" d="M2.31 9.496l13.949 12.399 13.949-12.399"></path>
        </symbol>
        <symbol id="icon-Group-212" viewBox="0 0 32 32">
            <path stroke-linejoin="round" stroke-linecap="round" stroke-miterlimit="4" stroke-width="2.7676" d="M1.898 15.91h27.676"></path>
            <path stroke-linejoin="round" stroke-linecap="round" stroke-miterlimit="4" stroke-width="2.7676" d="M15.736 2.072l13.838 13.838-13.838 13.838"></path>
        </symbol>
        <symbol id="icon-google-drive" viewBox="0 0 32 32">
            <path fill="#59c36a" style="fill: var(--color14, #59c36a)" d="M16.035 10.183l-6.52 11.309h-0.018l3.776 4.605-8.473 3.555c-0.166-0.092-0.295-0.221-0.368-0.35l-3.979-7.368c-0.203-0.405-0.037-0.718 0.018-0.903l10.665-18.419c0.074-0.111 0.184-0.221 0.332-0.313h0.018l5.47 1.695-0.921 6.189z"></path>
            <path fill="#ffda2d" style="fill: var(--color15, #ffda2d)" d="M31.771 21.492l-7.386 4.605-1.75-4.605-6.6-11.309-4.55-7.883c0.129-0.092 0.295-0.147 0.442-0.147h8.276c0.184 0.055 0.553 0.037 0.792 0.46l10.665 18.419c0.074 0.129 0.11 0.295 0.11 0.461z"></path>
            <path fill="#fdbf00" style="fill: var(--color16, #fdbf00)" d="M20.996 2.613c-0.239-0.424-0.608-0.405-0.792-0.46h-4.169v8.031l6.6 11.309 1.75 4.605 7.386-4.605c0-0.166-0.037-0.332-0.11-0.46l-10.665-18.419z"></path>
            <path fill="#4086f4" style="fill: var(--color11, #4086f4)" d="M31.77 21.492c0 0.166-0.037 0.332-0.092 0.442l-3.979 7.368c-0.147 0.239-0.497 0.479-0.81 0.479h-21.648c-0.147 0-0.313-0.055-0.442-0.129l4.697-8.16h22.275z"></path>
            <path fill="#4175df" style="fill: var(--color12, #4175df)" d="M16.035 29.781h10.855c0.313 0 0.663-0.239 0.81-0.479l3.979-7.368c0.055-0.11 0.092-0.276 0.092-0.442h-15.736v8.289h-0z"></path>
        </symbol>
        <symbol id="icon-key" viewBox="0 0 32 32">
            <path fill="#4f9cf9" style="fill: var(--color2, #4f9cf9)" d="M28.748 3.219c-3.948-3.948-10.372-3.948-14.32 0-2.697 2.697-3.633 6.671-2.466 10.277l-11.4 11.4c-0.173 0.173-0.27 0.407-0.27 0.651v5.207c0 0.508 0.412 0.921 0.921 0.921h5.207c0.244 0 0.478-0.097 0.651-0.27l1.302-1.302c0.199-0.199 0.296-0.478 0.263-0.757l-0.162-1.398 1.938-0.183c0.44-0.041 0.789-0.39 0.83-0.83l0.183-1.938 1.398 0.162c0.261 0.030 0.522-0.052 0.719-0.227s0.308-0.425 0.308-0.687v-1.714h1.683c0.242 0 0.475-0.096 0.647-0.266l2.287-2.261c3.606 1.169 7.583 0.233 10.28-2.465 3.948-3.948 3.948-10.372-0-14.32zM27.447 16.238c-2.323 2.323-5.809 3.049-8.879 1.848-0.339-0.133-0.724-0.053-0.982 0.203l-2.429 2.401h-2.226c-0.508 0-0.921 0.412-0.921 0.921v1.601l-1.306-0.152c-0.246-0.029-0.493 0.043-0.686 0.199s-0.314 0.383-0.337 0.629l-0.2 2.116-2.116 0.199c-0.247 0.023-0.473 0.145-0.629 0.337s-0.228 0.44-0.199 0.686l0.22 1.89-0.718 0.718h-3.906v-3.905l11.542-11.542c0.259-0.259 0.34-0.646 0.206-0.986-1.201-3.070-0.476-6.555 1.848-8.879 3.23-3.23 8.486-3.23 11.717 0s3.23 8.486 0 11.716z"></path>
            <path fill="#4f9cf9" style="fill: var(--color2, #4f9cf9)" d="M26.144 5.823c-1.077-1.077-2.829-1.077-3.905 0s-1.077 2.829 0 3.905c1.077 1.077 2.829 1.077 3.905 0s1.077-2.829 0-3.905zM24.842 8.427c-0.359 0.359-0.943 0.359-1.302 0s-0.359-0.943 0-1.302c0.36-0.36 0.942-0.36 1.302 0s0.36 0.942 0 1.302z"></path>
        </symbol>
        <symbol id="icon-protection" viewBox="0 0 32 32">
            <path fill="#ffe492" style="fill: var(--color17, #ffe492)" d="M14.876 18.498c-0.255 0-0.51-0.097-0.704-0.292-0.389-0.389-0.389-1.019 0-1.407l6.449-6.449c0.388-0.389 1.019-0.389 1.407 0s0.389 1.019 0 1.407l-6.449 6.449c-0.194 0.195-0.449 0.292-0.704 0.292z"></path>
            <path fill="#ffe492" style="fill: var(--color17, #ffe492)" d="M14.877 18.498c-0.255 0-0.509-0.097-0.704-0.292l-3.251-3.251c-0.389-0.389-0.389-1.019 0-1.407s1.019-0.389 1.407 0l3.251 3.251c0.389 0.389 0.389 1.019 0 1.407-0.194 0.195-0.449 0.292-0.704 0.292z"></path>
            <path fill="#ffe492" style="fill: var(--color17, #ffe492)" d="M16.066 28.861c-0.104 0-0.209-0.016-0.312-0.050-6.361-2.098-10.635-8.009-10.635-14.708 0-0.549 0.446-0.995 0.995-0.995s0.995 0.446 0.995 0.995c0 5.838 3.725 10.989 9.268 12.818 0.522 0.172 0.806 0.735 0.633 1.257-0.138 0.418-0.527 0.684-0.945 0.684z"></path>
            <path fill="#ffe492" style="fill: var(--color17, #ffe492)" d="M6.114 15.098c-0.549 0-0.995-0.446-0.995-0.995v-7.041c0-0.549 0.446-0.995 0.995-0.995s0.995 0.446 0.995 0.995v7.041c0 0.55-0.446 0.995-0.995 0.995z"></path>
            <path fill="#ffe492" style="fill: var(--color17, #ffe492)" d="M6.113 8.057c-0.489 0-0.915-0.36-0.985-0.858-0.076-0.544 0.304-1.047 0.849-1.123 3.362-0.467 6.607-1.472 9.645-2.986 0.492-0.245 1.090-0.045 1.335 0.447s0.045 1.089-0.447 1.335c-3.232 1.61-6.683 2.679-10.259 3.176-0.046 0.007-0.093 0.009-0.138 0.009z"></path>
            <path fill="#ffe492" style="fill: var(--color17, #ffe492)" d="M16.066 28.861c-0.418 0-0.807-0.265-0.945-0.684-0.172-0.522 0.111-1.085 0.633-1.257 5.544-1.828 9.268-6.979 9.268-12.818 0-0.549 0.446-0.995 0.995-0.995s0.995 0.446 0.995 0.995c0 6.699-4.274 12.61-10.636 14.708-0.104 0.034-0.208 0.050-0.311 0.050z"></path>
            <path fill="#ffe492" style="fill: var(--color17, #ffe492)" d="M26.018 15.098c-0.549 0-0.995-0.446-0.995-0.995v-7.041c0-0.549 0.446-0.995 0.995-0.995s0.995 0.446 0.995 0.995v7.041c0 0.55-0.446 0.995-0.995 0.995z"></path>
            <path fill="#ffe492" style="fill: var(--color17, #ffe492)" d="M26.020 8.057c-0.046 0-0.092-0.003-0.138-0.009-3.576-0.498-7.027-1.566-10.259-3.176-0.492-0.245-0.692-0.842-0.447-1.335s0.842-0.692 1.335-0.447c3.038 1.514 6.283 2.519 9.645 2.986 0.544 0.076 0.925 0.579 0.849 1.123-0.069 0.498-0.495 0.858-0.984 0.858z"></path>
        </symbol>
        <symbol id="icon-padlock" viewBox="0 0 32 32">
            <path fill="#4f9cf9" style="fill: var(--color2, #4f9cf9)" d="M24.96 11.694h-2.242v-5.115c0-3.628-3.014-6.579-6.718-6.579s-6.718 2.951-6.718 6.579v5.115h-2.237c-2.058 0-3.732 1.674-3.732 3.732v12.689c0 2.058 1.674 3.732 3.732 3.732h17.914c2.058 0 3.732-1.674 3.732-3.732v-12.689c0-2.058-1.674-3.732-3.732-3.732zM11.771 6.579c0-2.256 1.897-4.091 4.23-4.091s4.23 1.835 4.23 4.091v5.115h-8.459v-5.115zM26.204 28.115c0 0.686-0.558 1.244-1.244 1.244h-17.914c-0.686 0-1.244-0.558-1.244-1.244v-12.689c0-0.686 0.558-1.244 1.244-1.244h17.914c0.686 0 1.244 0.558 1.244 1.244v12.689z"></path>
            <path fill="#4f9cf9" style="fill: var(--color2, #4f9cf9)" d="M16.003 17.789c-1.271 0-2.301 1.030-2.301 2.301 0 0.812 0.42 1.525 1.055 1.934v2.731c0 0.687 0.557 1.244 1.244 1.244s1.244-0.557 1.244-1.244v-2.728c0.637-0.409 1.060-1.124 1.060-1.937 0-1.271-1.030-2.301-2.301-2.301z"></path>
        </symbol>
        <symbol id="icon-Group-2" viewBox="0 0 32 32">
            <path fill="#ffe492" style="fill: var(--color17, #ffe492)" d="M10.909 0c-6.419 0-10.892 2.229-10.892 4.229s4.473 4.229 10.892 4.229c6.419 0 10.892-2.229 10.892-4.229s-4.473-4.229-10.892-4.229z"></path>
            <path fill="#ffe492" style="fill: var(--color17, #ffe492)" d="M0.017 23.662v3.956c0 2 4.473 4.229 10.892 4.229 2.877 0 5.592-0.453 7.646-1.276 1.339-0.536 2.329-1.201 2.845-1.892-0.971-0.76-2.093-1.853-3.070-3.36-2.151 0.689-4.693 1.050-7.421 1.050-3.432 0-6.643-0.591-9.041-1.665-0.699-0.313-1.318-0.662-1.851-1.041v0z"></path>
            <path fill="#ffe492" style="fill: var(--color17, #ffe492)" d="M0.017 15.884l-0 3.902c0 2 4.473 4.229 10.892 4.229 2.276 0 4.461-0.285 6.29-0.814-0.664-1.534-1.093-3.228-1.282-5.060-1.565 0.294-3.271 0.448-5.009 0.448-3.454 0-6.68-0.598-9.083-1.684-0.682-0.308-1.287-0.651-1.808-1.022z"></path>
            <path fill="#ffe492" style="fill: var(--color17, #ffe492)" d="M0.017 8.102v3.904c0 2 4.473 4.229 10.892 4.229 1.717 0 3.39-0.162 4.897-0.471 0.002-0.37 0.112-1.332 1.003-1.577 1.404-0.385 2.386-1.311 2.473-2.58 0.036-0.522 0.69-1.255 1.177-1.247h1.342v-2.259c-0.522 0.371-1.126 0.713-1.808 1.022-2.406 1.088-5.632 1.688-9.084 1.688s-6.678-0.6-9.084-1.688c-0.682-0.309-1.286-0.651-1.808-1.022v0z"></path>
            <path fill="#ffe492" style="fill: var(--color17, #ffe492)" d="M28.528 12.715h-7.020c-0.392 1.632-1.647 2.971-3.345 3.555 0.132 7.834 4.635 10.821 6.62 11.758 0.113 0.053 0.248 0.048 0.36-0.015 1.993-1.123 6.512-4.466 6.722-11.745-1.693-0.585-2.945-1.922-3.337-3.552zM24.597 22.916c-0.476 0.49-1.296 0.463-1.74-0.057l-2.237-2.625 1.792-1.526 1.398 1.641 3.902-4.013 1.688 1.64-4.803 4.94z"></path>
        </symbol>
        <symbol id="icon-G-mail" viewBox="0 0 32 32">
            <path fill="#f44336" style="fill: var(--color18, #f44336)" d="M28.858 4.143h-0.982l-11.781 9.303-11.781-9.303h-0.982c-1.626 0-2.945 1.319-2.945 2.945v17.672c0 1.626 1.319 2.945 2.945 2.945h0.982v-18.367l11.781 9.062 11.781-9.064v18.369h0.982c1.626 0 2.945-1.319 2.945-2.945v-17.672c0-1.626-1.319-2.945-2.945-2.945z"></path>
        </symbol>
        <symbol id="icon-Slack" viewBox="0 0 32 32">
            <path fill="#ff4340" style="fill: var(--color19, #ff4340)" d="M11.855 16.942c-1.812 0-3.287 1.474-3.287 3.287v8.214c0 1.812 1.474 3.287 3.287 3.287s3.287-1.474 3.287-3.287v-8.214c0-1.812-1.474-3.287-3.287-3.287z"></path>
            <path fill="#ff4340" style="fill: var(--color19, #ff4340)" d="M6.729 16.942h-3.182c-1.755 0-3.182 1.428-3.182 3.182s1.428 3.182 3.182 3.182 3.182-1.428 3.182-3.182v-3.182z"></path>
            <path fill="#36c6ff" style="fill: var(--color20, #36c6ff)" d="M0.355 11.815c0 1.812 1.474 3.287 3.287 3.287h8.214c1.813 0 3.287-1.475 3.287-3.287s-1.474-3.287-3.287-3.287h-8.214c-1.812-0-3.287 1.474-3.287 3.287v0z"></path>
            <path fill="#36c6ff" style="fill: var(--color20, #36c6ff)" d="M11.961 6.686h3.182v-3.182c0-1.755-1.428-3.182-3.182-3.182s-3.182 1.428-3.182 3.182 1.427 3.182 3.182 3.182z"></path>
            <path fill="#0dc46e" style="fill: var(--color21, #0dc46e)" d="M20.27 15.101c1.812 0 3.287-1.474 3.287-3.287v-8.214c0-1.812-1.474-3.287-3.287-3.287s-3.287 1.474-3.287 3.287v8.214c0 1.813 1.474 3.287 3.287 3.287z"></path>
            <path fill="#0dc46e" style="fill: var(--color21, #0dc46e)" d="M25.398 15.102h3.182c1.755 0 3.182-1.428 3.182-3.182s-1.428-3.182-3.182-3.182-3.182 1.428-3.182 3.182v3.182z"></path>
            <path fill="#fdcb02" style="fill: var(--color22, #fdcb02)" d="M31.771 20.229c0-1.812-1.474-3.287-3.287-3.287h-8.214c-1.812 0-3.287 1.474-3.287 3.287s1.474 3.287 3.287 3.287h8.214c1.813 0 3.287-1.474 3.287-3.287z"></path>
            <path fill="#fdcb02" style="fill: var(--color22, #fdcb02)" d="M20.165 25.357h-3.182v3.182c0 1.755 1.428 3.182 3.182 3.182s3.182-1.428 3.182-3.182-1.427-3.182-3.182-3.182z"></path>
        </symbol>
        <symbol id="icon-Group" viewBox="0 0 32 32">
            <path fill="#0093eb" style="fill: var(--color23, #0093eb)" d="M6.463 23.82v-2.525l4.264 2.468 5.273-4.937v11.22l-9.537-6.227z"></path>
            <path fill="#0093eb" style="fill: var(--color23, #0093eb)" d="M1.36 17.144l5.554-5.049 9.088 5.61-5.273 4.937-9.369-5.498z"></path>
            <path fill="#0093eb" style="fill: var(--color23, #0093eb)" d="M6.912 12.095l-6.62-5.049 9.537-5.049 6.732 4.488-9.649 5.61z"></path>
            <path fill="#0093eb" style="fill: var(--color23, #0093eb)" d="M25.538 23.875l-9.537 6.171v-11.22l5.442 4.712 4.095-2.581v2.917z"></path>
            <path fill="#0093eb" style="fill: var(--color23, #0093eb)" d="M21.443 22.417l-5.442-4.712 9.144-5.835 5.498 4.712-9.2 5.834z"></path>
            <path fill="#0093eb" style="fill: var(--color23, #0093eb)" d="M25.144 11.87l-8.583-5.386 6.732-4.488 8.415 5.049-6.564 4.825z"></path>
        </symbol>
        <symbol id="icon-Google" viewBox="0 0 95 32">
            <path fill="#ea4335" style="fill: var(--color1, #ea4335)" d="M40.816 16.949c0 4.521-3.519 7.853-7.837 7.853s-7.837-3.332-7.837-7.853c0-4.553 3.519-7.853 7.837-7.853s7.837 3.3 7.837 7.853zM37.385 16.949c0-2.825-2.039-4.758-4.406-4.758s-4.407 1.933-4.407 4.758c0 2.797 2.040 4.758 4.407 4.758s4.406-1.965 4.406-4.758z"></path>
            <path fill="#fbbc05" style="fill: var(--color2, #fbbc05)" d="M57.723 16.949c0 4.521-3.519 7.853-7.837 7.853s-7.837-3.332-7.837-7.853c0-4.55 3.519-7.853 7.837-7.853s7.837 3.3 7.837 7.853zM54.292 16.949c0-2.825-2.039-4.758-4.406-4.758s-4.406 1.933-4.406 4.758c0 2.797 2.039 4.758 4.406 4.758s4.406-1.965 4.406-4.758z"></path>
            <path fill="#4285f4" style="fill: var(--color3, #4285f4)" d="M73.926 9.57v14.098c0 5.799-3.402 8.168-7.425 8.168-3.787 0-6.066-2.546-6.925-4.628l2.987-1.25c0.532 1.278 1.835 2.786 3.934 2.786 2.575 0 4.171-1.597 4.171-4.603v-1.129h-0.12c-0.768 0.952-2.248 1.784-4.114 1.784-3.906 0-7.485-3.42-7.485-7.821 0-4.433 3.579-7.881 7.485-7.881 1.863 0 3.343 0.832 4.114 1.756h0.12v-1.278h3.258v-0.004zM70.911 16.977c0-2.765-1.836-4.787-4.171-4.787-2.367 0-4.35 2.022-4.35 4.787 0 2.737 1.983 4.73 4.35 4.73 2.335 0 4.171-1.993 4.171-4.73z"></path>
            <path fill="#34a853" style="fill: var(--color4, #34a853)" d="M79.297 1.307v23.013h-3.346v-23.013h3.346z"></path>
            <path fill="#ea4335" style="fill: var(--color1, #ea4335)" d="M92.338 19.533l2.663 1.784c-0.859 1.278-2.93 3.48-6.51 3.48-4.438 0-7.753-3.448-7.753-7.853 0-4.67 3.343-7.853 7.369-7.853 4.054 0 6.038 3.243 6.686 4.996l0.355 0.892-10.444 4.348c0.799 1.576 2.043 2.379 3.786 2.379 1.747 0 2.959-0.864 3.847-2.174zM84.141 16.708l6.981-2.914c-0.384-0.981-1.539-1.664-2.899-1.664-1.744 0-4.17 1.547-4.082 4.578z"></path>
            <path fill="#4285f4" style="fill: var(--color3, #4285f4)" d="M12.475 14.906v-3.332h11.169c0.109 0.581 0.166 1.268 0.166 2.011 0 2.5-0.68 5.591-2.871 7.793-2.131 2.231-4.854 3.42-8.461 3.42-6.686 0-12.307-5.474-12.307-12.194s5.622-12.194 12.307-12.194c3.698 0 6.333 1.459 8.313 3.36l-2.339 2.351c-1.419-1.338-3.343-2.379-5.977-2.379-4.882 0-8.7 3.955-8.7 8.862s3.818 8.862 8.7 8.862c3.167 0 4.97-1.278 6.125-2.439 0.937-0.942 1.553-2.287 1.796-4.125l-7.922 0.004z"></path>
        </symbol>
        <symbol id="icon-Slack2" viewBox="0 0 123 32">
            <path fill="#000" style="fill: var(--color5, #000)" d="M39.358 24.956l1.53-3.556c1.653 1.235 3.849 1.877 6.021 1.877 1.604 0 2.615-0.617 2.615-1.556-0.025-2.617-9.598-0.568-9.672-7.136-0.025-3.334 2.936-5.902 7.131-5.902 2.492 0 4.984 0.617 6.761 2.025l-1.431 3.63c-1.629-1.037-3.652-1.778-5.577-1.778-1.308 0-2.171 0.617-2.171 1.408 0.025 2.568 9.672 1.161 9.771 7.433 0 3.408-2.887 5.803-7.032 5.803-3.035 0-5.823-0.716-7.945-2.247zM98.059 20.116c-0.765 1.333-2.196 2.247-3.85 2.247-2.443 0-4.417-1.975-4.417-4.42s1.974-4.42 4.417-4.42c1.653 0 3.084 0.914 3.85 2.247l4.219-2.346c-1.579-2.815-4.614-4.741-8.068-4.741-5.108 0-9.253 4.148-9.253 9.26s4.145 9.26 9.253 9.26c3.479 0 6.49-1.901 8.068-4.741l-4.219-2.346zM56.457 1.003h5.28v25.853h-5.28v-25.853zM104.351 1.003v25.853h5.281v-7.754l6.267 7.754h6.761l-7.97-9.21 7.378-8.593h-6.465l-5.971 7.136v-15.186h-5.281zM77.43 20.165c-0.765 1.259-2.344 2.198-4.12 2.198-2.443 0-4.417-1.975-4.417-4.42s1.974-4.42 4.417-4.42c1.777 0 3.356 0.988 4.12 2.272v4.371zM77.43 9.053v2.099c-0.863-1.457-3.010-2.469-5.256-2.469-4.639 0-8.291 4.099-8.291 9.235s3.652 9.285 8.291 9.285c2.246 0 4.392-1.012 5.256-2.469v2.099h5.281v-17.779h-5.281z"></path>
            <path fill="#e01e5a" style="fill: var(--color6, #e01e5a)" d="M6.713 20.141c0 1.803-1.456 3.259-3.257 3.259s-3.257-1.457-3.257-3.259c0-1.803 1.456-3.259 3.257-3.259h3.257v3.259zM8.341 20.141c0-1.803 1.456-3.259 3.257-3.259s3.257 1.457 3.257 3.259v8.149c0 1.803-1.456 3.259-3.257 3.259s-3.257-1.457-3.257-3.259v-8.149z"></path>
            <path fill="#36c5f0" style="fill: var(--color7, #36c5f0)" d="M11.598 7.053c-1.801 0-3.257-1.457-3.257-3.259s1.456-3.259 3.257-3.259c1.801 0 3.257 1.457 3.257 3.259v3.259h-3.257zM11.598 8.708c1.801 0 3.257 1.457 3.257 3.259s-1.456 3.26-3.257 3.26h-8.167c-1.801 0-3.257-1.457-3.257-3.26s1.456-3.259 3.257-3.259h8.167z"></path>
            <path fill="#2eb67d" style="fill: var(--color8, #2eb67d)" d="M24.651 11.967c0-1.803 1.456-3.259 3.257-3.259s3.257 1.457 3.257 3.259c0 1.803-1.456 3.26-3.257 3.26h-3.257v-3.26zM23.023 11.967c0 1.803-1.456 3.26-3.257 3.26s-3.257-1.457-3.257-3.26v-8.173c0-1.803 1.456-3.259 3.257-3.259s3.257 1.457 3.257 3.259v8.173z"></path>
            <path fill="#ecb22e" style="fill: var(--color9, #ecb22e)" d="M19.766 25.030c1.801 0 3.257 1.457 3.257 3.26s-1.456 3.259-3.257 3.259c-1.801 0-3.257-1.457-3.257-3.259v-3.26h3.257zM19.766 23.4c-1.801 0-3.257-1.457-3.257-3.259s1.456-3.259 3.257-3.259h8.167c1.801 0 3.257 1.457 3.257 3.259s-1.456 3.259-3.257 3.259h-8.167z"></path>
        </symbol>
        <symbol id="icon-Microsoft2" viewBox="0 0 146 32">
            <path fill="#706d6e" style="fill: var(--color10, #706d6e)" d="M145.361 14.58v-2.579h-3.167v-4.009l-3.14 0.971v3.037h-4.695v-1.692c0-0.788 0.174-1.391 0.517-1.793 0.341-0.397 0.829-0.599 1.451-0.599 0.447 0 0.91 0.107 1.377 0.317l0.116 0.053v-2.716l-0.055-0.020c-0.434-0.158-1.026-0.238-1.759-0.238-0.924 0-1.763 0.203-2.495 0.606s-1.309 0.979-1.712 1.711c-0.402 0.731-0.606 1.576-0.606 2.511v1.86h-2.205v2.579h2.205v10.863h3.166v-10.863h4.695v6.904c0 2.843 1.326 4.284 3.942 4.284 0.43 0 0.882-0.051 1.344-0.151 0.47-0.102 0.791-0.205 0.979-0.314l0.042-0.025v-2.602l-0.129 0.086c-0.172 0.116-0.385 0.21-0.637 0.281-0.252 0.072-0.462 0.108-0.625 0.108-0.613 0-1.066-0.167-1.347-0.496-0.285-0.332-0.429-0.914-0.429-1.727v-6.346h3.167zM121.918 23.15c-1.149 0-2.055-0.385-2.693-1.144-0.643-0.763-0.968-1.85-0.968-3.231 0-1.425 0.325-2.541 0.968-3.317 0.639-0.771 1.536-1.162 2.668-1.162 1.098 0 1.972 0.374 2.597 1.111 0.629 0.741 0.948 1.848 0.948 3.29 0 1.46-0.3 2.581-0.893 3.331-0.588 0.744-1.472 1.123-2.627 1.123zM122.058 11.677c-2.192 0-3.933 0.649-5.174 1.93s-1.87 3.054-1.87 5.27c0 2.105 0.614 3.797 1.825 5.031s2.86 1.859 4.899 1.859c2.125 0 3.831-0.659 5.072-1.957 1.241-1.297 1.87-3.053 1.87-5.217 0-2.138-0.59-3.843-1.754-5.068-1.165-1.226-2.802-1.847-4.868-1.847zM109.909 11.677c-1.491 0-2.725 0.386-3.667 1.146-0.948 0.765-1.428 1.768-1.428 2.982 0 0.631 0.103 1.192 0.308 1.667 0.206 0.477 0.524 0.897 0.946 1.25 0.419 0.35 1.066 0.716 1.924 1.088 0.721 0.3 1.259 0.554 1.6 0.754 0.334 0.196 0.571 0.393 0.705 0.585 0.13 0.188 0.196 0.445 0.196 0.762 0 0.903-0.669 1.343-2.045 1.343-0.51 0-1.093-0.108-1.731-0.32-0.633-0.209-1.231-0.516-1.772-0.909l-0.131-0.095v3.082l0.048 0.023c0.448 0.209 1.012 0.385 1.678 0.524 0.665 0.139 1.268 0.209 1.793 0.209 1.618 0 2.922-0.387 3.872-1.152 0.957-0.77 1.442-1.797 1.442-3.053 0-0.906-0.261-1.683-0.775-2.31-0.511-0.622-1.398-1.192-2.636-1.697-0.986-0.4-1.617-0.732-1.878-0.987-0.251-0.246-0.379-0.594-0.379-1.035 0-0.391 0.157-0.704 0.481-0.958 0.325-0.255 0.779-0.385 1.347-0.385 0.527 0 1.067 0.084 1.603 0.249s1.008 0.386 1.401 0.657l0.129 0.089v-2.923l-0.050-0.022c-0.363-0.157-0.842-0.292-1.422-0.401-0.579-0.109-1.103-0.163-1.56-0.163zM96.56 23.15c-1.149 0-2.055-0.385-2.693-1.144-0.643-0.763-0.968-1.85-0.968-3.231 0-1.425 0.325-2.541 0.968-3.317 0.638-0.771 1.535-1.162 2.667-1.162 1.098 0 1.971 0.374 2.597 1.111 0.629 0.741 0.948 1.848 0.948 3.29 0 1.46-0.3 2.581-0.893 3.331-0.588 0.744-1.471 1.123-2.627 1.123zM96.701 11.677c-2.193 0-3.935 0.649-5.175 1.93s-1.87 3.054-1.87 5.27c0 2.105 0.615 3.797 1.826 5.031s2.86 1.859 4.899 1.859c2.125 0 3.832-0.659 5.072-1.957 1.241-1.297 1.87-3.053 1.87-5.217 0-2.138-0.59-3.843-1.754-5.068s-2.803-1.847-4.867-1.847zM84.85 14.329v-2.328h-3.127v13.442h3.127v-6.876c0-1.169 0.262-2.13 0.78-2.855 0.511-0.717 1.192-1.080 2.022-1.080 0.282 0 0.598 0.047 0.941 0.14 0.338 0.092 0.584 0.193 0.729 0.298l0.131 0.096v-3.188l-0.051-0.022c-0.291-0.125-0.703-0.188-1.224-0.188-0.786 0-1.489 0.255-2.092 0.758-0.529 0.442-0.911 1.048-1.203 1.803h-0.033zM76.123 11.677c-1.435 0-2.715 0.311-3.803 0.924-1.091 0.615-1.934 1.492-2.508 2.608-0.572 1.113-0.862 2.413-0.862 3.863 0 1.27 0.281 2.436 0.837 3.463 0.556 1.029 1.343 1.834 2.34 2.392 0.995 0.558 2.145 0.84 3.419 0.84 1.486 0 2.755-0.3 3.772-0.893l0.042-0.024v-2.897l-0.131 0.097c-0.461 0.339-0.976 0.61-1.53 0.805s-1.057 0.294-1.499 0.294c-1.228 0-2.213-0.388-2.928-1.154-0.716-0.766-1.080-1.843-1.080-3.197 0-1.363 0.379-2.466 1.125-3.281 0.745-0.812 1.731-1.224 2.933-1.224 1.028 0 2.030 0.352 2.977 1.047l0.131 0.096v-3.052l-0.042-0.024c-0.357-0.202-0.844-0.369-1.447-0.495-0.602-0.126-1.189-0.19-1.748-0.19zM66.796 12.001h-3.127v13.442h3.127v-13.441zM65.265 6.275c-0.515 0-0.964 0.177-1.333 0.528-0.37 0.352-0.558 0.795-0.558 1.318 0 0.515 0.186 0.95 0.552 1.293 0.364 0.342 0.815 0.515 1.338 0.515s0.975-0.173 1.344-0.514c0.371-0.343 0.559-0.778 0.559-1.293 0-0.505-0.183-0.944-0.544-1.304s-0.818-0.542-1.36-0.542zM57.462 11.010v14.433h3.192v-18.756h-4.417l-5.615 13.932-5.449-13.932h-4.597v18.756h2.999v-14.435h0.103l5.754 14.435h2.263l5.664-14.433h0.103z"></path>
            <path fill="#f1511b" style="fill: var(--color11, #f1511b)" d="M15.052 15.294h-14.712v-14.874h14.712v14.874z"></path>
            <path fill="#80cc28" style="fill: var(--color12, #80cc28)" d="M31.295 15.293h-14.711v-14.874h14.711v14.874z"></path>
            <path fill="#00adef" style="fill: var(--color13, #00adef)" d="M15.052 31.722h-14.711v-14.874h14.711v14.874z"></path>
            <path fill="#fbbc09" style="fill: var(--color14, #fbbc09)" d="M31.295 31.722h-14.711v-14.874h14.711v14.874z"></path>
        </symbol>
    </defs>
</svg>